<svg width="100" height="100" viewBox="0 0 100 100" fill="none" xmlns="http://www.w3.org/2000/svg">
<path d="M30 75.5V30M70 75.5V30M30 30V10H70V30M30 30H10L10 80H16M70 30H90V80H84M16 40V59.5M24 40V59.5M76 40V59.5M84 40V59.5M37 30.5H46V39.5H37V30.5ZM54 30.5H63V39.5H54V30.5ZM37 44.5H46V53.5H37V44.5ZM54 44.5H63V53.5H54V44.5ZM37 16.5H46V25.5H37V16.5ZM54 16.5H63V25.5H54V16.5Z" stroke="black" stroke-width="3" stroke-linecap="round" stroke-linejoin="round"/>
<path d="M78 77C75.2386 77 73 74.7614 73 72C73 69.2386 75.2386 67 78 67C80.7614 67 83 69.2386 83 72C83 74.7614 80.7614 77 78 77ZM78 77C74 77 71 80 71 83V90M78 77C82 77 85 80 85 83V90H71M71 90H57M71 90V79C71 76 68 73 64 73M64 73C61.2386 73 59 70.7614 59 68C59 65.2386 61.2386 63 64 63C66.7614 63 69 65.2386 69 68C69 70.7614 66.7614 73 64 73ZM64 73C60 73 57 76 57 79V90M57 90H43M57 90V76C57 73 54 70 50 70M50 70C52.7614 70 55 67.7614 55 65C55 62.2386 52.7614 60 50 60C47.2386 60 45 62.2386 45 65C45 67.7614 47.2386 70 50 70ZM50 70C46 70 43 73 43 76V90M43 90H29M43 90V79C43 76 40 73 36 73M36 73C38.7614 73 41 70.7614 41 68C41 65.2386 38.7614 63 36 63C33.2386 63 31 65.2386 31 68C31 70.7614 33.2386 73 36 73ZM36 73C32 73 29 76 29 79V90M29 90H15V83C15 80 18 77 22 77M29 90V83C29 80 26 77 22 77M22 77C24.7614 77 27 74.7614 27 72C27 69.2386 24.7614 67 22 67C19.2386 67 17 69.2386 17 72C17 74.7614 19.2386 77 22 77Z" stroke="#00A0F1" stroke-width="3" stroke-linejoin="round"/>
</svg>
