<svg width="100" height="100" viewBox="0 0 100 100" fill="none" xmlns="http://www.w3.org/2000/svg">
<path d="M18.5 79.9995H22M37.5 79.9995H34M22 79.9995H34M22 79.9995C21.3002 78.4443 20.6003 76.5264 20.0909 74.4995M34 79.9995C34.7776 78.4443 35.5624 76.5264 36.1463 74.4995M23 66.9995H33M23 71.9995H33M25.5 59.9995V51.7495C25.5 50.2307 26.7312 48.9995 28.25 48.9995V48.9995C29.7688 48.9995 31 50.2307 31 51.7495V59.9995M25.5 59.9995L23 60.9995L19 52.9995C21.3333 52.9995 26.4 54.3995 28 59.9995M25.5 59.9995H28M31 59.9995H28M31 59.9995L34 61.4995L37.5 52.9995C34.8333 52.9995 29.2 54.3995 28 59.9995M28 59.9995C18.7993 59.9995 18.4166 67.8377 20.0909 74.4995M28 59.9995C37.8141 59.9995 38.0655 67.8377 36.1463 74.4995M20.0909 74.4995C13.7637 74.4995 11.7273 78.8328 11.5 80.9995V87.9995H89V82.6493C89 81.5609 88.8011 80.4701 88.2396 79.5377C86.899 77.3115 84.3867 74.4995 81.1 74.4995M69 79.9995H72M83 79.9995H80M76 79.9995V68.9995M76 79.9995H80M76 79.9995H72M80 79.9995L81.1 74.4995M70.5 58.4995C70.3333 56.9995 71.2 53.9995 76 53.9995C80.8 53.9995 81.6667 57.6662 81.5 59.4995C83.1667 59.6662 86.5 60.8995 86.5 64.4995C86.5 68.0995 83.5 69.6662 82 69.9995L81.1 74.4995M75.5 62.9995C74 60.8328 70.2 57.3995 67 60.9995C63.8 64.5995 67.3333 68.1662 69.5 69.4995L70.6905 74.4995M72 79.9995L70.6905 74.4995M52.5 79.9995V75.9995M52.5 79.9995C49.3361 80.6022 43.3121 80.197 42.1844 74.4995M52.5 79.9995C55.6639 80.6022 61.6879 80.197 62.8157 74.4995M52.5 57.4995V75.9995M52.5 57.4995C56 57.3328 63 55.3995 63 48.9995C59.5 48.6662 52.5 49.8995 52.5 57.4995ZM52.5 57.4995C49 57.1661 42 54.9992 42 48.9995C45.5 48.6662 52.5 49.8995 52.5 57.4995ZM52.5 75.9995C56.1 71.1995 61 71.6662 63 72.4995C63 73.2293 62.9355 73.8943 62.8157 74.4995M52.5 75.9995C48.5 71.1995 43.8333 71.6662 42 72.4995C42 73.2293 42.0645 73.8943 42.1844 74.4995M36.1463 74.4995H42.1844M62.8157 74.4995H70.6905M52.5 51.9998C56 50.8332 63 47.3998 63 42.9998C59.5 42.4998 52.5 43.5998 52.5 51.9998ZM52.5 51.9998C49 50.8331 42 47.3997 42 42.9998C45.5 42.4998 52.5 43.5997 52.5 51.9998ZM52.5 45C56 45 63 42.8 63 36C61.1775 36.0868 58.4061 36.8966 56.1681 38.5M52.5 45C49 45 42 42.4 42 36C43.8225 36.0868 46.5939 36.8966 48.8319 38.5M52.5 45C52.5 42.1242 50.8919 39.9759 48.8319 38.5M52.5 45C52.5 42.1242 54.1081 39.9759 56.1681 38.5M48.8319 38.5L44 24M56.1681 38.5L61.5 24M52.5 40.5C49.8333 38.3333 46.1 32.6 52.5 27C55.1667 29.1448 58.9 34.8476 52.5 40.5Z" stroke="black" stroke-width="3" stroke-linejoin="round"/>
<path d="M14.662 63C12.9442 58.6675 12 53.944 12 49C12 36.2122 18.3166 24.8996 28 18.0124M87 57.6977C87.6541 54.9044 88 51.9926 88 49C88 44.056 87.0558 39.3325 85.338 35M28 18.0124H20M28 18.0124V25.5M37 13.2819C41.0557 11.8054 45.4338 11 50 11C62.7955 11 74.114 17.3242 81 27.0175M81 27.0175V19M81 27.0175H74" stroke="#00A0F1" stroke-width="3"/>
</svg>
