<svg width="220" height="220" viewBox="0 0 220 220" fill="none" xmlns="http://www.w3.org/2000/svg">
<path d="M63.0559 74.7526V60.0676C63.0559 54.5447 67.533 50.0676 73.0559 50.0676H80.2734M137.77 50.0676H145.304C150.827 50.0676 155.304 54.5448 155.304 60.0676V112.255M155.304 129.028V151.181M63.0559 85.671V171.246C63.0559 176.769 67.533 181.246 73.0559 181.246H121.501M80.2734 55.7641V55.7641C80.2734 60.4833 84.099 64.309 88.8182 64.309H129.226C133.945 64.309 137.77 60.4833 137.77 55.7641V55.7641M80.2734 55.7641H96.7011M80.2734 55.7641V41.5228M107.442 55.7641H137.77M137.77 55.7641V41.5228M120.079 115.578L134.611 100.862L126.555 93.1082L104.283 114.312L92.1203 103.077L84.3803 111.305L104.283 130.61L111.707 123.648M155.304 151.181V151.181C155.304 167.786 141.843 181.246 125.239 181.246H121.501M155.304 151.181C155.337 153.518 154.013 157.312 149.574 159.836C144.084 162.958 139.23 168.788 136.082 174.264C133.849 178.15 129.471 181.246 121.501 181.246M127.819 155.928L116.515 161.265C115.676 161.661 114.797 160.8 115.175 159.953L120.711 147.542M127.819 155.928L146.414 136.782M127.819 155.928L120.711 147.542M120.711 147.542L139.192 129.028M139.192 129.028L146.414 136.782M139.192 129.028L163.36 104.818M146.414 136.782L163.36 119.333M172.701 97.3806L171.731 96.4311L164.781 103.394M172.701 97.3806L178.84 90.7346L185 96.4311L178.193 102.761M172.701 97.3806L178.193 102.761M178.193 102.761L178.84 103.394L174.998 107.35M174.998 107.35L181.367 113.837L163.36 132.351M174.998 107.35L171.731 110.713M163.36 132.351V179C163.36 184.523 158.883 189 153.36 189H65C59.4772 189 55 184.523 55 179V51.5228C55 45.9999 59.4772 41.5228 65 41.5228H80.2734M163.36 132.351V119.333M164.781 103.394L171.731 110.713M164.781 103.394L163.36 104.818M171.731 110.713L163.36 119.333M108.706 37.9624H109.97M80.2734 41.5228V41.5228C80.2734 39.906 81.584 38.5954 83.2008 38.5954H100.808C100.597 36.0636 101.977 31 109.18 31C116.383 31 117.762 36.0636 117.552 38.5954H134.843C136.46 38.5954 137.77 39.906 137.77 41.5228V41.5228M137.77 41.5228H153.36C158.883 41.5228 163.36 45.9999 163.36 51.5228V104.818" stroke="#00A0F1" stroke-width="5" stroke-linecap="round" stroke-linejoin="round"/>
</svg>
