<?xml version="1.0" encoding="UTF-8"?>
<svg width="201px" height="60px" viewBox="0 0 201 60" version="1.1" xmlns="http://www.w3.org/2000/svg" xmlns:xlink="http://www.w3.org/1999/xlink">
    <title>EZ TIT</title>
    <defs>
        <linearGradient x1="50%" y1="100%" x2="50%" y2="0%" id="linearGradient-1">
            <stop stop-color="#2E2B55" offset="0%"></stop>
            <stop stop-color="#33A1D3" offset="100%"></stop>
        </linearGradient>
    </defs>
    <g id="Page-1" stroke="none" stroke-width="1" fill="none" fill-rule="evenodd">
        <g id="EZ-TIT">
            <g id="icon">
                <path d="M23.8571408,0.556032509 L2.83904554,11.2522894 C1.09813212,12.1374199 0,13.9388736 0,15.9083104 L0,15.9083104 L0,42.4336081 C0,44.3169071 1.00541234,46.0536859 2.62943058,46.9768773 L2.62943058,46.9768773 L23.5110059,58.8533082 C24.285472,59.2942995 25.1444098,59.5177999 26.0047698,59.5238095 L26.0047698,59.5238095 L26.0775804,59.5238095 C26.9441975,59.5175137 27.8096769,59.2908654 28.5886937,58.8438645 L28.5886937,58.8438645 L50.8570839,46.0791552 C52.4722852,45.1531021 53.4703027,43.4214744 53.4703027,41.5450435 L53.4703027,41.5450435 L53.4703027,16.4300023 C53.4703027,14.4565591 52.3681888,12.6522436 50.621587,11.7688301 L50.621587,11.7688301 L28.4882947,0.553170788 C27.7607573,0.184294872 26.9683729,0 26.1759885,0 L26.1759885,0 C25.3813288,0 24.5863847,0.18543956 23.8571408,0.556032509" id="Fill-24" fill="url(#linearGradient-1)"></path>
                <path d="M47.5723292,25.4099416 C48.6855354,24.7720639 50.0572762,25.5959535 50.0572762,26.9020433 L50.0572762,41.1823203 C50.0572762,42.0668784 49.5905487,42.8824691 48.8365606,43.3140167 L31.2513726,53.3887076 C29.979462,54.117302 28.410905,53.1757956 28.410905,51.6834077 L27.9706282,38.7950721 C27.9706282,37.5568052 28.6239329,36.4155506 29.6794026,35.8108688 L47.5723292,25.4099416 Z M34.0921246,41.5909741 C34.1748898,41.4564732 34.2164146,41.3133871 34.2152997,41.1662946 C34.2135705,40.9027301 34.0747752,40.794557 33.9917256,40.7533482 C33.792634,40.6546188 33.5761931,40.7785314 33.5048045,40.819454 L31.3116689,42.0760359 C31.1646255,42.1601706 31.0491524,42.2677713 30.9686626,42.3959764 C30.8844753,42.5310497 30.8420972,42.676139 30.8432126,42.8280964 C30.8452258,43.0919471 30.9837366,43.1992617 31.065933,43.239612 C31.2641713,43.3371967 31.4783369,43.2144288 31.5488722,43.1740785 L31.9496151,42.9442823 L31.9658268,45.4528674 C31.9663957,45.5461596 31.9681022,45.8300424 32.1686158,45.9705529 C32.2158289,46.0037489 32.2937591,46.0432406 32.3989932,46.0432406 C32.4755012,46.0432406 32.5667989,46.0220639 32.6703265,45.9625401 C32.8102594,45.8824119 32.924026,45.7619334 33.0084977,45.603394 C33.0909785,45.4497196 33.1322189,45.2651385 33.1305124,45.0553743 L33.1134474,42.4303171 C33.1128786,42.3361664 33.1620826,42.2500286 33.2417193,42.2042411 L33.7422923,41.9174966 C33.8947396,41.8302141 34.0122036,41.7203239 34.0921246,41.5909741 L34.0921246,41.5909741 Z M37.8219626,42.8172218 C37.8998928,42.6872997 37.9391422,42.549937 37.9380286,42.4082818 C37.9362981,42.1484375 37.8014847,42.0416953 37.7209948,42.001345 C37.5910164,41.9358116 37.4340185,41.9549851 37.2534141,42.0585794 L36.3683099,42.5656765 C36.2016418,42.6609718 35.9962931,42.5387763 35.994871,42.3433207 C35.9943022,42.2497424 36.0435062,42.1630323 36.1231429,42.1172447 L37.3020493,41.4418784 C37.445964,41.359747 37.5548955,41.2555804 37.6271373,41.131954 C37.7002324,41.0066106 37.7369221,40.8735405 37.7360689,40.7378949 C37.7343624,40.4866358 37.6018243,40.3827553 37.5224721,40.3432635 C37.3321974,40.2485405 37.1313994,40.3632956 37.0654147,40.4010703 L35.9863385,41.0192022 L35.9843476,40.7410428 C35.9837788,40.6474645 36.0329828,40.5610405 36.1129039,40.515253 L37.4149626,39.7694883 C37.5602995,39.6862122 37.6717907,39.5814732 37.745739,39.458133 C37.8228159,39.3310726 37.8609277,39.1945685 37.8603589,39.0529132 C37.858368,38.8005094 37.7249766,38.695198 37.6444867,38.6545616 C37.4516524,38.5581216 37.2454504,38.6763107 37.1780437,38.7152301 L35.3560716,39.7589 C35.2366166,39.8272951 35.1359332,39.906851 35.056581,39.9955643 C34.971256,40.0911458 34.9078311,40.2021806 34.8685817,40.3260932 C34.8318919,40.4417067 34.8136893,40.5727736 34.8145139,40.7150011 L34.8341673,43.7378377 C34.8350205,43.8371394 34.836727,44.1381925 35.0511771,44.2706902 C35.1157396,44.310182 35.1839996,44.325063 35.250553,44.325063 C35.4081198,44.325063 35.5551631,44.2412145 35.615175,44.2065877 L37.4906174,43.1322974 C37.6345322,43.0498798 37.745739,42.9439961 37.8219626,42.8172218 L37.8219626,42.8172218 Z M41.9613604,39.6344151 C42.0210879,39.4292296 42.049814,39.2549508 42.0489792,39.1012763 C42.0472542,38.8454384 41.9147161,38.7324004 41.836786,38.6880437 C41.760278,38.643687 41.6001515,38.5878835 41.3916742,38.7075034 C41.2523101,38.7870593 41.1490669,38.8975217 41.0845044,39.0351706 C41.0344471,39.1419128 40.9929222,39.2663977 40.9616364,39.4000401 C40.9010557,39.6344151 40.8103268,39.8396005 40.6914407,40.0093006 C40.5759676,40.1738496 40.433475,40.305775 40.2668069,40.4010703 C40.1359753,40.4757612 40.024484,40.5092434 39.944563,40.4940762 C39.9220941,40.4897837 39.861229,40.4791953 39.8003638,40.3466976 C39.7591234,40.255981 39.7090661,40.0756925 39.7065064,39.7325721 C39.7039466,39.3047447 39.7781794,38.927856 39.9277824,38.6130666 C40.0734037,38.3057177 40.2619718,38.0890854 40.5042947,37.9500057 C40.6732381,37.8532795 40.7568565,37.8581445 40.7844449,37.8650126 C40.8427503,37.879035 40.9007713,37.9319769 40.9565169,38.0229796 C41.036438,38.1526156 41.112946,38.2341747 41.1957112,38.2788175 C41.315735,38.3440648 41.4599341,38.3303285 41.6234736,38.2367502 C41.7417909,38.1689274 41.8407678,38.061899 41.9175603,37.9185268 C41.9923618,37.7788748 42.0299048,37.6395089 42.0290516,37.5044357 C42.0273451,37.2712054 41.9465708,37.0663061 41.7878664,36.8946028 C41.6274555,36.7211825 41.4041885,36.629035 41.1237538,36.6210222 C40.8652192,36.6115785 40.5751144,36.7002919 40.2625407,36.8791495 C40.0173736,37.01966 39.7844365,37.2053858 39.5699865,37.4308894 C39.3578118,37.6541037 39.1700969,37.9116587 39.0133834,38.1958276 C38.8563855,38.4799966 38.7349396,38.7862008 38.65189,39.1067136 C38.568556,39.4275126 38.5278844,39.7646234 38.5301597,40.1091747 C38.5312974,40.3243761 38.5503533,40.5218349 38.5864742,40.6955414 C38.6243016,40.8781193 38.6817537,41.0415236 38.7571241,41.1817479 C38.8361919,41.3291266 38.9346,41.4518945 39.0517796,41.5483345 C39.1868774,41.6562214 39.3376182,41.7226133 39.5014421,41.7446486 C39.5435357,41.750372 39.5870515,41.7532337 39.6314204,41.7532337 C39.7483156,41.7532337 39.8720368,41.733774 40.0008775,41.6948546 C40.1647014,41.6462054 40.3464435,41.5649325 40.5412688,41.4533253 C40.7983814,41.3062328 41.0264834,41.1256582 41.2196022,40.9170387 C41.4104457,40.7109947 41.5694345,40.492073 41.692018,40.2665694 C41.8134639,40.0430689 41.9041927,39.830443 41.9613604,39.6344151 L41.9613604,39.6344151 Z M46.0905192,38.1082589 C46.1747065,37.9517228 46.2162313,37.7674279 46.215391,37.5596669 L46.1943313,34.3914549 C46.1940468,34.2978766 46.1920559,34.0119906 45.9901202,33.8737695 C45.9084927,33.8176797 45.7347142,33.7444196 45.4875563,33.8857887 C45.345348,33.9673478 45.2310126,34.0892571 45.1473941,34.2483688 C45.0663354,34.4026156 45.0259483,34.5849073 45.0270859,34.7900927 L45.0327743,35.6460337 C45.0333431,35.739612 44.984139,35.8260359 44.9045024,35.8718235 L44.3902774,36.1662946 C44.2236093,36.2618761 44.0179762,36.1393945 44.0171229,35.944225 L44.0148476,35.640024 C44.0142788,35.5464457 44.0122878,35.2611321 43.8103521,35.1220524 C43.7284402,35.0659627 43.5549461,34.9929888 43.3080726,35.1343578 C43.1624513,35.2179201 43.0466938,35.3409741 42.9647819,35.4997997 C42.8859985,35.6526156 42.8464646,35.8340488 42.8475784,36.038948 L42.8683647,39.2065877 C42.8689335,39.2978766 42.8709244,39.5751774 43.059777,39.7194082 C43.1078434,39.7560382 43.1877644,39.7995364 43.2978336,39.7995364 C43.3740572,39.7995364 43.4647861,39.7786458 43.5683137,39.719122 C43.7096687,39.6384215 43.8248574,39.516226 43.9107512,39.3568281 C43.9949384,39.2005781 44.0370321,39.015997 44.03561,38.808236 L44.028784,37.7516884 C44.0282152,37.6583963 44.0771348,37.5714 44.1573403,37.5258986 L44.6712809,37.2314274 C44.837949,37.1361321 45.0432977,37.2583276 45.0447198,37.4537832 L45.0481328,37.9580185 C45.0495548,38.2055575 45.1121265,38.3735405 45.2392606,38.4711252 C45.3208882,38.5329384 45.4952355,38.6156422 45.7477974,38.4708391 C45.8888679,38.3895662 46.004341,38.2676568 46.0905192,38.1082589 L46.0905192,38.1082589 Z M48.2088534,36.9137763 C48.3010043,36.7609604 48.3467954,36.5944082 48.3459538,36.4189847 C48.3439512,36.1479796 48.203165,36.0260703 48.1186933,35.977421 C48.0362125,35.9296303 47.8638561,35.8695341 47.6351853,36.0008871 C47.4992342,36.0784398 47.3863208,36.1974874 47.299005,36.3545959 C47.2116891,36.5105598 47.1684578,36.6679544 47.169311,36.8227736 C47.1710175,37.1135245 47.3032712,37.237437 47.4147625,37.2903789 C47.46226,37.3129865 47.5245473,37.3313015 47.5990644,37.3313015 C47.6789854,37.3313015 47.7736961,37.3101248 47.8803523,37.2488839 C48.0083397,37.1756239 48.1189777,37.062872 48.2088534,36.9137763 L48.2088534,36.9137763 Z M13.3760797,38.495736 C22.8627922,32.827524 41.998619,22.2431605 48.033084,18.9166953 C48.8650022,18.4582475 49.8749652,19.082389 49.8545177,20.041638 C49.8377067,20.8291838 49.4048248,21.5471898 48.7210875,21.9217891 L27.3892809,33.6076293 L27.2866065,33.6671532 C25.658322,34.6573088 24.5289041,36.8070341 24.5948887,38.7867731 L24.9270872,52.7099073 L24.9285093,52.7462511 C24.9637769,53.7069311 25.2538818,54.5562901 25.7530327,55.2096211 C25.9617944,55.4826293 25.7262976,55.8689618 25.3938147,55.7942708 C24.2294135,55.4992273 22.1796238,55.3318166 21.8989047,52.7339457 L21.8559578,50.2273638 C21.831498,48.8076637 21.0038459,47.5284741 19.7288068,46.9395318 L13.3760797,44.0148523 L10.8325429,42.6941678 C9.7875967,42.1518716 9.74265889,40.6557635 10.7529063,40.049937 C11.6232208,39.5282452 12.4995081,39.0062672 13.3760797,38.495736 L13.3760797,38.495736 Z M16.4625676,31.0083276 L13.8837632,32.5559467 L5.05689699,37.8043441 C4.07224706,38.38928 2.8441366,37.6541037 2.8441366,36.4790808 L2.8441366,23.5615556 C2.8441366,22.4154361 4.01792351,21.6773981 5.00115136,22.2050996 L13.8837632,26.9724416 L16.4039778,28.3309009 C17.4364097,28.8875057 17.4696865,30.403932 16.4625676,31.0083276 L16.4625676,31.0083276 Z M3.38794095,16.0426683 C2.66211003,15.6723615 2.6632477,14.6166724 3.38993187,14.2477965 L24.8403402,3.35923191 C25.3969433,3.07706616 26.0516701,3.07735234 26.6082731,3.36066277 L47.8681224,14.1894174 C48.6050455,14.5651614 48.6024858,15.6371623 47.8638561,16.0091861 C47.0848393,16.4015282 46.3368239,16.7772722 45.6269203,17.1355598 C44.997791,17.4532109 44.2594458,17.4523523 43.6314541,17.1324119 L26.9404716,8.63052312 C26.5155534,8.4138908 26.0152647,8.41675252 25.5929062,8.63853594 L23.1349788,9.92573832 C22.5880459,10.2121967 22.5923121,11.0097585 23.1418048,11.2904934 L34.281546,16.9807406 C35.0147718,17.3556261 35.0147718,18.4227621 34.281546,18.7973615 C33.5383657,19.1776843 32.8793726,19.5208047 32.2960344,19.8270089 C31.8725382,20.0496509 31.3716808,20.0507956 30.9461937,19.8333047 L18.0169038,13.2095639 C17.5865817,12.9892113 17.0777605,12.9943624 16.6517046,13.2235863 L14.2190902,14.5328239 C13.6786989,14.823861 13.6872314,15.6154132 14.2341643,15.8941449 L29.4751915,23.6577095 C30.2166653,24.0351706 30.2106926,25.1154705 29.4635304,25.4814847 C28.6333187,25.8878491 27.6833675,26.3523065 26.591777,26.8885932 C25.9663451,27.1956559 25.2351103,27.190791 24.6139446,26.8737122 L3.38794095,16.0426683 Z" id="Fill-27" fill="#FEFEFE"></path>
            </g>
            <text font-family="ToppanBunkyuMidashiGothicStdN-ExtraBold, Toppan Bunkyu Midashi Gothic" font-size="20" font-weight="600" letter-spacing="10.5" fill="#000000">
                <tspan x="67" y="53">EZ TIT</tspan>
            </text>
            <text id="億集創見" font-family="ToppanBunkyuMidashiGothicStdN-ExtraBold, Toppan Bunkyu Midashi Gothic" font-size="30" font-weight="600" letter-spacing="0.535714286" fill="#000000">
                <tspan x="64" y="30">億集創見</tspan>
            </text>
            <text id="TM" font-family="ToppanBunkyuMidashiGothicStdN-ExtraBold, Toppan Bunkyu Midashi Gothic" font-size="8" font-weight="600" letter-spacing="0.142857143" fill="#000000">
                <tspan x="188" y="11">TM</tspan>
            </text>
        </g>
    </g>
</svg>