<svg width="100" height="100" viewBox="0 0 100 100" fill="none" xmlns="http://www.w3.org/2000/svg">
<path d="M60.1801 90H15V44M60.1801 90H77.3174M60.1801 90V72.9355M77.3174 90H84.5878V44M77.3174 90V49.9355H60.1801V72.9355M48.236 60.3226L37.3304 73.1828M48.236 69.2258L44.6008 73.1828M60.1801 72.9355H63.8153M53.4291 77.6344V49.9355H22.2704V77.6344H53.4291Z" stroke="black" stroke-width="3" stroke-linecap="round" stroke-linejoin="round"/>
<path d="M83.7538 18.5V10H16.2433V18.5M83.7538 18.5L89.9856 34M83.7538 18.5H71.2904M89.9856 34H73.3676M89.9856 34C90.1332 36.5593 89.1975 41.3019 84.7924 42.6401C84.0339 42.8705 83.1724 43 82.1959 43C75.5487 43 73.5407 37 73.3676 34M10.0116 34L16.2433 18.5M10.0116 34H26.1102M10.0116 34C9.86546 36.5322 11.076 41.2019 15.2047 42.5965C15.9673 42.8541 16.8296 43 17.8012 43C24.033 43 25.764 37 26.1102 34M16.2433 18.5H28.1875M71.2904 18.5L73.3676 34M71.2904 18.5H57.2689M73.3676 34H57.7883M73.3676 34C73.5407 37 72.2251 43 65.5779 43C58.9307 43 57.6151 37 57.7883 34M57.2689 18.5L57.7883 34M57.2689 18.5H42.7282M57.7883 34H42.2089M57.7883 34C58.1345 37 57.0612 43 49.9985 43C42.9359 43 41.8627 37 42.2089 34M42.7282 18.5L42.2089 34M42.7282 18.5H28.1875M42.2089 34H26.1102M42.2089 34C42.382 37 40.9625 43 33.8999 43C26.8372 43 25.764 37 26.1102 34M28.1875 18.5L26.1102 34" stroke="#00A0F1" stroke-width="3" stroke-linecap="round" stroke-linejoin="round"/>
</svg>
